<?xml version="1.0" encoding="UTF-8"?>
<!DOCTYPE svg PUBLIC "-//W3C//DTD SVG 1.1//EN" "http://www.w3.org/Graphics/SVG/1.1/DTD/svg11.dtd">
<svg xmlns="http://www.w3.org/2000/svg" version="1.1" width="300px" height="240px" style="shape-rendering:geometricPrecision; text-rendering:geometricPrecision; image-rendering:optimizeQuality; fill-rule:evenodd; clip-rule:evenodd" xmlns:xlink="http://www.w3.org/1999/xlink">
<g><path style="opacity:0.999" fill="#fefefe" d="M -0.5,-0.5 C 99.5,-0.5 199.5,-0.5 299.5,-0.5C 299.5,79.5 299.5,159.5 299.5,239.5C 199.5,239.5 99.5,239.5 -0.5,239.5C -0.5,159.5 -0.5,79.5 -0.5,-0.5 Z"/></g>
<g><path style="opacity:1" fill="#2f2f2f" d="M 140.5,34.5 C 140.441,36.7224 139.275,37.7224 137,37.5C 130.532,36.0853 129.365,32.9187 133.5,28C 139.481,26.818 141.814,28.9847 140.5,34.5 Z"/></g>
<g><path style="opacity:1" fill="#2f2d2d" d="M 154.5,34.5 C 152.855,29.2972 154.855,26.7972 160.5,27C 162.213,28.3782 163.547,30.0448 164.5,32C 162.743,30.8146 160.743,29.6479 158.5,28.5C 155.206,29.1359 153.873,31.1359 154.5,34.5 Z"/></g>
<g><path style="opacity:1" fill="#f3f3f3" d="M 140.5,34.5 C 135.789,36.7009 133.289,35.3675 133,30.5C 137.259,27.8612 139.759,29.1946 140.5,34.5 Z"/></g>
<g><path style="opacity:1" fill="#4fa2a9" d="M 191.5,102.5 C 162.167,103.833 132.833,103.833 103.5,102.5C 117.74,76.9252 132.406,51.5918 147.5,26.5C 162.684,51.5336 177.35,76.8669 191.5,102.5 Z"/></g>
<g><path style="opacity:1" fill="#404a43" d="M 154.5,34.5 C 156.085,35.0024 156.585,36.0024 156,37.5C 154.961,36.7562 154.461,35.7562 154.5,34.5 Z"/></g>
<g><path style="opacity:1" fill="#39393a" d="M 169.5,48.5 C 175.802,49.2707 177.468,52.4373 174.5,58C 169.749,60.7245 166.749,59.3912 165.5,54C 166.007,51.4547 167.341,49.6214 169.5,48.5 Z"/></g>
<g><path style="opacity:1" fill="#f3f2f2" d="M 169.5,50.5 C 174.241,50.1614 175.574,52.1614 173.5,56.5C 170.196,58.3553 168.196,57.522 167.5,54C 167.862,52.5657 168.528,51.3991 169.5,50.5 Z"/></g>
<g><path style="opacity:1" fill="#313131" d="M 117.5,54.5 C 120.778,55.8089 123.778,57.6422 126.5,60C 122.556,59.6956 119.556,57.8622 117.5,54.5 Z"/></g>
<g><path style="opacity:1" fill="#383938" d="M 105.5,77.5 C 113.284,78.9574 114.45,82.6241 109,88.5C 105.979,87.253 103.479,85.4197 101.5,83C 102.007,80.4547 103.341,78.6214 105.5,77.5 Z"/></g>
<g><path style="opacity:1" fill="#f1f1f0" d="M 104.5,79.5 C 110.158,78.6794 111.825,80.846 109.5,86C 104.919,85.9308 103.252,83.7641 104.5,79.5 Z"/></g>
<g><path style="opacity:1" fill="#262626" d="M 185.5,72.5 C 186.497,72.4701 187.164,72.9701 187.5,74C 186.173,76.453 185.339,78.953 185,81.5C 186.71,80.0552 188.544,79.2218 190.5,79C 188.102,81.9134 185.436,82.9134 182.5,82C 183.827,79.547 184.661,77.047 185,74.5C 183.29,75.9448 181.456,76.7782 179.5,77C 181.389,75.2359 183.389,73.7359 185.5,72.5 Z"/></g>
<g><path style="opacity:1" fill="#272828" d="M 199.5,94.5 C 201.268,96.5078 202.934,98.6744 204.5,101C 203.004,101.507 201.837,101.007 201,99.5C 198.75,100.708 196.583,102.041 194.5,103.5C 193.167,102.833 193.167,102.167 194.5,101.5C 196.413,100.627 198.247,99.627 200,98.5C 200.195,97.1807 200.028,95.8474 199.5,94.5 Z"/></g>
<g><path style="opacity:1" fill="#b5d6d9" d="M 103.5,102.5 C 132.833,103.833 162.167,103.833 191.5,102.5C 192.043,102.56 192.376,102.893 192.5,103.5C 162.5,104.833 132.5,104.833 102.5,103.5C 102.624,102.893 102.957,102.56 103.5,102.5 Z"/></g>
<g><path style="opacity:1" fill="#3c3c3b" d="M 88.5,104.5 C 93.0144,105.507 95.5144,108.174 96,112.5C 95.5917,114.41 94.4251,115.41 92.5,115.5C 89.1477,114.944 86.981,113.277 86,110.5C 88.4916,112.497 91.325,113.497 94.5,113.5C 94.6567,112.127 94.49,110.793 94,109.5C 91.7355,108.149 89.9022,106.483 88.5,104.5 Z"/></g>
<g><path style="opacity:1" fill="#4ea3aa" d="M 99.5,109.5 C 113.833,109.5 128.167,109.5 142.5,109.5C 142.5,138.5 142.5,167.5 142.5,196.5C 111.329,196.831 80.3288,196.498 49.5,195.5C 66.1667,166.833 82.8333,138.167 99.5,109.5 Z"/></g>
<g><path style="opacity:1" fill="#4ea3aa" d="M 151.5,109.5 C 166.515,109.167 181.515,109.501 196.5,110.5C 213.098,138.697 229.431,167.031 245.5,195.5C 214.338,196.498 183.004,196.832 151.5,196.5C 151.5,167.5 151.5,138.5 151.5,109.5 Z"/></g>
<g><path style="opacity:1" fill="#b7d9d9" d="M 99.5,109.5 C 113.99,108.504 128.657,108.171 143.5,108.5C 143.831,138.338 143.498,168.005 142.5,197.5C 142.5,197.167 142.5,196.833 142.5,196.5C 142.5,167.5 142.5,138.5 142.5,109.5C 128.167,109.5 113.833,109.5 99.5,109.5 Z"/></g>
<g><path style="opacity:1" fill="#393939" d="M 208.5,118.5 C 210.5,118.5 212.5,118.5 214.5,118.5C 213.344,122.002 211.344,125.002 208.5,127.5C 209.206,126.146 209.206,124.479 208.5,122.5C 207.167,121.833 205.833,121.167 204.5,120.5C 205.949,119.828 207.282,119.161 208.5,118.5 Z"/></g>
<g><path style="opacity:1" fill="#ebebeb" d="M 211.5,119.5 C 212.737,120.743 212.404,121.743 210.5,122.5C 210.167,122.167 209.833,121.833 209.5,121.5C 210.243,120.818 210.909,120.151 211.5,119.5 Z"/></g>
<g><path style="opacity:1" fill="#3a3a3a" d="M 72.5,131.5 C 74.7583,131.775 75.0916,132.775 73.5,134.5C 82.7827,140.881 82.4493,141.548 72.5,136.5C 71.7425,137.811 70.7425,138.311 69.5,138C 70.914,136.007 71.914,133.84 72.5,131.5 Z"/></g>
<g><path style="opacity:1" fill="#353435" d="M 219.5,146.5 C 217.915,145.998 217.415,144.998 218,143.5C 219.918,142.458 221.751,141.292 223.5,140C 227,139.5 228.5,141 228,144.5C 226.095,145.158 224.595,146.325 223.5,148C 221.537,148.844 220.204,148.344 219.5,146.5 Z"/></g>
<g><path style="opacity:1" fill="#f7f7f7" d="M 223.5,141.5 C 224.5,141.5 225.5,141.5 226.5,141.5C 225.754,145.31 224.754,145.31 223.5,141.5 Z"/></g>
<g><path style="opacity:1" fill="#e1e0e0" d="M 219.5,146.5 C 219.5,145.5 219.5,144.5 219.5,143.5C 223.541,143.574 224.208,144.907 221.5,147.5C 220.817,147.137 220.15,146.804 219.5,146.5 Z"/></g>
<g><path style="opacity:1" fill="#2e302f" d="M 57.5,158.5 C 57.7239,160.046 58.0573,161.713 58.5,163.5C 60.0009,162.248 61.6675,161.248 63.5,160.5C 67.1159,163.082 66.9492,165.748 63,168.5C 63.5948,166.65 64.0948,164.65 64.5,162.5C 61.9963,163.639 59.3297,164.306 56.5,164.5C 56.3253,162.379 56.6586,160.379 57.5,158.5 Z"/></g>
<g><path style="opacity:1" fill="#1e1f1e" d="M 231.5,167.5 C 230.226,166.811 230.226,165.977 231.5,165C 233.569,163.126 235.902,162.126 238.5,162C 235.98,163.697 233.647,165.53 231.5,167.5 Z"/></g>
<g><path style="opacity:1" fill="#38383a" d="M 231.5,167.5 C 233.085,168.002 233.585,169.002 233,170.5C 231.961,169.756 231.461,168.756 231.5,167.5 Z"/></g>
<g><path style="opacity:1" fill="#373637" d="M 248.5,182.5 C 251.853,182.555 253.353,184.222 253,187.5C 249.451,182.35 248.118,183.017 249,189.5C 248.092,187.561 246.592,186.561 244.5,186.5C 246.013,192.499 245.346,192.832 242.5,187.5C 244.162,185.348 246.162,183.682 248.5,182.5 Z"/></g>
<g><path style="opacity:1" fill="#393738" d="M 42.5,183.5 C 43.2389,183.369 43.9056,183.536 44.5,184C 42.688,185.627 42.5213,187.127 44,188.5C 47.5098,184.454 48.3431,185.12 46.5,190.5C 48.92,190.142 50.92,189.309 52.5,188C 51.4811,191.048 49.4811,192.381 46.5,192C 44.2827,190.732 42.2827,189.232 40.5,187.5C 41.6302,186.378 42.2969,185.044 42.5,183.5 Z"/></g>
<g><path style="opacity:1" fill="#85b7b9" d="M 49.5,195.5 C 80.3288,196.498 111.329,196.831 142.5,196.5C 142.5,196.833 142.5,197.167 142.5,197.5C 111.16,197.833 79.8262,197.5 48.5,196.5C 48.6236,195.893 48.9569,195.56 49.5,195.5 Z"/></g>
<g><path style="opacity:1" fill="#8ebdc0" d="M 151.5,109.5 C 151.5,138.5 151.5,167.5 151.5,196.5C 183.004,196.832 214.338,196.498 245.5,195.5C 246.043,195.56 246.376,195.893 246.5,196.5C 214.507,197.5 182.507,197.833 150.5,197.5C 150.169,167.995 150.502,138.662 151.5,109.5 Z"/></g>
<g><path style="opacity:1" fill="#292929" d="M 166.5,203.5 C 166.877,205.258 167.544,206.925 168.5,208.5C 168.167,208.833 167.833,209.167 167.5,209.5C 166.996,206.658 165.329,205.325 162.5,205.5C 161.22,205.637 160.887,203.303 161.5,198.5C 164.596,197.907 166.929,198.907 168.5,201.5C 168.145,202.522 167.478,203.189 166.5,203.5 Z"/></g>
<g><path style="opacity:1" fill="#393939" d="M 237.5,198.5 C 244.263,198.547 246.263,201.714 243.5,208C 237.24,210.412 234.407,208.245 235,201.5C 236.045,200.627 236.878,199.627 237.5,198.5 Z"/></g>
<g><path style="opacity:1" fill="#414141" d="M 71.5,198.5 C 72.4959,198.414 73.3292,198.748 74,199.5C 75.3333,201.5 76.6667,203.5 78,205.5C 78.1858,203.1 78.6858,200.766 79.5,198.5C 81.7744,210.308 79.9411,211.641 74,202.5C 73.8142,204.9 73.3142,207.234 72.5,209.5C 71.5108,205.893 71.1774,202.226 71.5,198.5 Z"/></g>
<g><path style="opacity:1" fill="#e6e5e5" d="M 166.5,203.5 C 165.167,203.5 163.833,203.5 162.5,203.5C 162.5,202.5 162.5,201.5 162.5,200.5C 163.833,200.5 165.167,200.5 166.5,200.5C 166.5,201.5 166.5,202.5 166.5,203.5 Z"/></g>
<g><path style="opacity:1" fill="#efefef" d="M 237.5,200.5 C 243.158,199.679 244.825,201.846 242.5,207C 236.741,208.139 235.074,205.972 237.5,200.5 Z"/></g>
<g><path style="opacity:1" fill="#383838" d="M 219.5,198.5 C 226.136,199.022 226.136,199.855 219.5,201C 216.833,203 216.833,205 219.5,207C 221.256,207.202 222.922,207.702 224.5,208.5C 218.696,209.865 216.196,207.532 217,201.5C 218.045,200.627 218.878,199.627 219.5,198.5 Z"/></g>
<g><path style="opacity:1" fill="#a09e9f" d="M 113.5,200.5 C 114.335,201.943 115.668,202.943 117.5,203.5C 117.376,204.107 117.043,204.44 116.5,204.5C 115.432,203.566 114.099,203.232 112.5,203.5C 112.263,202.209 112.596,201.209 113.5,200.5 Z"/></g>
<g><path style="opacity:1" fill="#363636" d="M 179.5,198.5 C 180.317,200.969 180.817,203.635 181,206.5C 182.356,207.38 183.856,207.714 185.5,207.5C 185.183,204.428 185.516,201.428 186.5,198.5C 187.652,201.106 187.818,203.773 187,206.5C 185.174,210.037 182.84,210.371 180,207.5C 179.502,204.518 179.335,201.518 179.5,198.5 Z"/></g>
<g><path style="opacity:1" fill="#3d3d3d" d="M 201.5,198.5 C 208.136,199.022 208.136,199.855 201.5,201C 198.833,203 198.833,205 201.5,207C 203.256,207.202 204.922,207.702 206.5,208.5C 200.696,209.865 198.196,207.532 199,201.5C 200.045,200.627 200.878,199.627 201.5,198.5 Z"/></g>
<g><path style="opacity:1" fill="#1d1d1d" d="M 113.5,200.5 C 112.596,201.209 112.263,202.209 112.5,203.5C 114.099,203.232 115.432,203.566 116.5,204.5C 115.5,204.5 114.5,204.5 113.5,204.5C 112.833,205.833 112.167,207.167 111.5,208.5C 111.5,205.167 111.5,201.833 111.5,198.5C 113.527,198.338 115.527,198.505 117.5,199C 115.942,199.21 114.609,199.71 113.5,200.5 Z"/></g>
<g><path style="opacity:1" fill="#2c2d2c" d="M 55.5,198.5 C 58.8152,200.921 60.3152,204.254 60,208.5C 57.1399,204.417 54.8065,204.75 53,209.5C 53.0345,205.692 53.8678,202.025 55.5,198.5 Z"/></g>
<g><path style="opacity:1" fill="#eae9e9" d="M 55.5,201.5 C 57.4646,201.948 57.7979,202.948 56.5,204.5C 55.6143,203.675 55.281,202.675 55.5,201.5 Z"/></g>
<g><path style="opacity:1" fill="#393939" d="M 128.5,198.5 C 130.388,200.988 131.055,203.988 130.5,207.5C 131.978,207.238 133.311,207.571 134.5,208.5C 132.604,209.466 130.604,209.799 128.5,209.5C 128.5,205.833 128.5,202.167 128.5,198.5 Z"/></g>
<g><path style="opacity:1" fill="#5b5b5b" d="M 142.5,198.5 C 145.247,198.187 147.914,198.52 150.5,199.5C 149.675,200.386 148.675,200.719 147.5,200.5C 146.833,212.5 146.167,212.5 145.5,200.5C 143.821,200.715 142.821,200.048 142.5,198.5 Z"/></g>
<g><path style="opacity:1" fill="#4f4f4f" d="M 94.5,198.5 C 96.288,198.215 97.9547,198.548 99.5,199.5C 97.0829,200.072 94.9162,201.072 93,202.5C 92.5516,206.799 94.3849,208.132 98.5,206.5C 96.0762,204.286 96.7429,203.286 100.5,203.5C 100.714,209.591 98.0473,211.091 92.5,208C 90.8614,204.327 91.5281,201.16 94.5,198.5 Z"/></g>
<g><path style="opacity:1" fill="#6b6b6b" d="M 113.5,204.5 C 113.5,205.5 113.5,206.5 113.5,207.5C 114.978,207.238 116.311,207.571 117.5,208.5C 115.364,209.793 113.364,209.793 111.5,208.5C 112.167,207.167 112.833,205.833 113.5,204.5 Z"/></g>
</svg>
